<svg width="22" height="21" viewBox="0 0 22 21" fill="none" xmlns="http://www.w3.org/2000/svg">
<path d="M10.2578 0.846191C10.4075 0.38554 11.0593 0.385533 11.209 0.846191L13.0566 6.53369C13.2575 7.15172 13.8336 7.5708 14.4834 7.5708H20.4648C20.9488 7.57111 21.1502 8.19038 20.7588 8.4751L15.9199 11.9907C15.3942 12.3727 15.1743 13.0495 15.375 13.6675L17.2227 19.356C17.3723 19.8166 16.845 20.2002 16.4531 19.9155L11.6143 16.3999C11.0885 16.018 10.3773 16.018 9.85156 16.3999L5.0127 19.9155C4.62085 20.2001 4.0935 19.8166 4.24316 19.356L6.0918 13.6675C6.29237 13.0497 6.07229 12.3727 5.54688 11.9907L0.708008 8.4751C0.31615 8.1904 0.517592 7.5708 1.00195 7.5708H6.98242C7.63226 7.5708 8.20837 7.15173 8.40918 6.53369L10.2578 0.846191Z" fill="#FFC847" stroke="#1C3025"/>
</svg>
